<svg xmlns="http://www.w3.org/2000/svg" viewBox="0 0 24 24" id="nautica"><path d="M21.462.985a.75.75 0 0 0-1.404-.524c-.016.037-1.56 3.708-4.384 7.605-4.325 5.952-8.672 10.872-12.92 14.621a.751.751 0 0 0 .6 1.306l6.114-.85a.747.747 0 0 0 .397-.186c.104-.094 2.6-2.389 6.998-10.905C19.475 6.966 21.442 1.045 21.462.985zm.164 6.321a.75.75 0 0 0-.841.484c-.038.108-3.944 10.838-9.715 14.844a.752.752 0 0 0-.259.919.753.753 0 0 0 .853.428L16.43 22.9a.718.718 0 0 0 .161-.057c.17-.082 1.718-.914 3.589-4.661.896-1.784 1.98-4.99 2.062-10.127a.752.752 0 0 0-.616-.749z"></path></svg>